<svg width="193" height="78" viewBox="0 0 193 78" fill="none" xmlns="http://www.w3.org/2000/svg">
<g id="Group 111">
<g id="Group 107">
<path id="Vector" d="M83.4532 31.9023C83.5712 31.9802 83.5712 31.9802 83.6916 32.0596C84.3963 32.5861 84.7949 33.3943 85.2237 34.1449C85.2905 34.0606 85.3573 33.9763 85.4261 33.8895C86.6412 32.3815 88.0929 31.0872 90.0629 30.722C90.5477 30.6883 91.0304 30.6891 91.5162 30.6925C91.6433 30.6916 91.7704 30.6907 91.9014 30.6898C93.7515 30.6942 95.3768 31.1389 96.7907 32.3745C98.215 33.8176 98.3449 35.5259 98.3385 37.4459C98.3385 37.5819 98.3385 37.718 98.3385 37.8581C98.3384 38.3038 98.3375 38.7496 98.3366 39.1953C98.3364 39.5059 98.3362 39.8165 98.3361 40.1271C98.3357 40.8586 98.3348 41.59 98.3336 42.3215C98.3323 43.155 98.3316 43.9885 98.331 44.822C98.3298 46.535 98.3276 48.248 98.3251 49.961C99.3378 49.961 100.35 49.961 101.394 49.961C101.394 50.1558 101.394 50.3505 101.394 50.5512C97.6936 50.5512 93.9933 50.5512 90.181 50.5512C90.181 50.3564 90.181 50.1617 90.181 49.961C91.0379 49.961 91.8948 49.961 92.7776 49.961C92.7677 47.9941 92.7565 46.0273 92.7437 44.0604C92.7378 43.1471 92.7323 42.2338 92.7278 41.3204C92.7239 40.5241 92.7192 39.7277 92.7136 38.9313C92.7106 38.5099 92.708 38.0886 92.7064 37.6672C92.7046 37.1959 92.701 36.7246 92.6972 36.2534C92.697 36.1148 92.6967 35.9763 92.6965 35.8335C92.6848 34.6881 92.5907 33.6385 91.8334 32.7286C91.1129 32.0775 90.4648 31.9677 89.5064 31.9816C88.2125 32.1109 87.2522 32.8468 86.404 33.7908C85.6363 34.8433 85.5426 35.9395 85.5401 37.2047C85.5389 37.343 85.5378 37.4813 85.5365 37.6238C85.5329 38.0785 85.5309 38.5332 85.5289 38.9879C85.5267 39.3041 85.5244 39.6203 85.522 39.9365C85.5165 40.6822 85.5121 41.4279 85.5082 42.1736C85.5037 43.0231 85.4978 43.8726 85.4919 44.7221C85.4797 46.4684 85.4694 48.2147 85.4597 49.961C86.3556 49.961 87.2514 49.961 88.1744 49.961C88.1744 50.1558 88.1744 50.3505 88.1744 50.5512C84.5521 50.5512 80.9297 50.5512 77.1976 50.5512C77.1976 50.3564 77.1976 50.1617 77.1976 49.961C78.0934 49.961 78.9893 49.961 79.9123 49.961C79.9051 47.95 79.896 45.939 79.8845 43.928C79.8792 42.9942 79.8745 42.0604 79.8714 41.1265C79.8687 40.3122 79.8647 39.4979 79.8593 38.6836C79.8565 38.2528 79.8543 37.822 79.8536 37.3911C79.8527 36.9091 79.8491 36.4272 79.8453 35.9452C79.8455 35.8037 79.8456 35.6623 79.8458 35.5166C79.8352 34.5638 79.7794 33.6341 79.1746 32.8613C78.2877 32.176 77.6065 31.9404 76.4894 32.0204C75.2142 32.2608 74.3306 33.1159 73.6083 34.1463C72.7851 35.4062 72.678 36.8561 72.6748 38.3303C72.6736 38.4571 72.6724 38.584 72.6712 38.7147C72.6676 39.1285 72.6656 39.5423 72.6636 39.9561C72.6613 40.2452 72.659 40.5342 72.6566 40.8233C72.6506 41.58 72.6459 42.3368 72.6415 43.0935C72.6368 43.8673 72.6307 44.6412 72.6248 45.415C72.6134 46.9303 72.6036 48.4457 72.5944 49.961C73.4902 49.961 74.3861 49.961 75.3091 49.961C75.3091 50.1558 75.3091 50.3505 75.3091 50.5512C71.6088 50.5512 67.9086 50.5512 64.0962 50.5512C64.0962 50.3564 64.0962 50.1617 64.0962 49.961C65.0699 49.961 66.0437 49.961 67.047 49.961C67.047 43.9627 67.047 37.9644 67.047 31.7843C66.0732 31.7843 65.0995 31.7843 64.0962 31.7843C64.0962 31.5506 64.0962 31.3169 64.0962 31.0761C66.9006 31.0761 69.705 31.0761 72.5944 31.0761C72.6333 32.0888 72.6723 33.1015 72.7124 34.1449C73.1214 33.5607 73.1214 33.5607 73.5386 32.9646C75.9755 30.1998 80.4569 29.8376 83.4532 31.9023Z" fill="#E3E3E3"/>
<path id="Vector_2" d="M175.541 32.1676C176.879 33.4471 177.411 34.9637 177.462 36.7931C177.47 37.5248 177.465 38.256 177.458 38.9876C177.456 39.3051 177.456 39.6226 177.455 39.9401C177.453 40.6854 177.448 41.4306 177.442 42.1759C177.436 43.0257 177.433 43.8755 177.43 44.7253C177.424 46.4705 177.413 48.2156 177.4 49.9608C178.413 49.9608 179.425 49.9608 180.469 49.9608C180.469 50.1555 180.469 50.3503 180.469 50.5509C176.691 50.5509 172.912 50.5509 169.02 50.5509C169.02 50.3562 169.02 50.1614 169.02 49.9608C169.955 49.9608 170.889 49.9608 171.853 49.9608C171.848 47.9518 171.841 45.9428 171.831 43.9339C171.826 43.001 171.822 42.0681 171.821 41.1352C171.819 40.3216 171.816 39.508 171.811 38.6944C171.808 38.2641 171.806 37.8337 171.806 37.4033C171.806 36.9216 171.803 36.44 171.799 35.9583C171.799 35.8173 171.8 35.6763 171.801 35.531C171.79 34.625 171.618 33.9132 171.262 33.0824C171.223 32.9655 171.184 32.8487 171.144 32.7283C170.925 32.5976 170.925 32.5976 170.672 32.4922C170.605 32.4505 170.538 32.4088 170.469 32.3659C169.679 31.8978 168.883 31.9191 167.996 32.0759C166.722 32.4067 165.674 33.2298 164.998 34.3563C163.696 36.681 163.557 39.04 163.541 41.6502C163.539 41.8911 163.537 42.1321 163.535 42.373C163.529 43.0011 163.524 43.6291 163.519 44.2572C163.515 44.9006 163.509 45.5439 163.503 46.1872C163.491 47.4451 163.482 48.7029 163.472 49.9608C164.446 49.9608 165.42 49.9608 166.423 49.9608C166.423 50.1555 166.423 50.3503 166.423 50.5509C162.645 50.5509 158.867 50.5509 154.974 50.5509C154.974 50.3562 154.974 50.1614 154.974 49.9608C155.948 49.9608 156.922 49.9608 157.925 49.9608C157.925 43.9624 157.925 37.9641 157.925 31.784C156.951 31.784 155.977 31.784 154.974 31.784C154.974 31.5503 154.974 31.3166 154.974 31.0759C157.779 31.0759 160.583 31.0759 163.472 31.0759C163.511 32.4781 163.55 33.8803 163.59 35.325C163.824 34.8965 164.058 34.4681 164.299 34.0266C165.35 32.4479 167.092 31.1672 168.976 30.7808C171.311 30.5152 173.681 30.5738 175.541 32.1676Z" fill="#E3E3E3"/>
<path id="Subtract" fill-rule="evenodd" clip-rule="evenodd" d="M145.867 31.7743L145.646 31.665C141.282 29.4653 135.788 30.1807 132.292 33.6895C130.466 35.6763 129.242 38.1166 129.335 40.8557L129.358 41.2255C129.476 43.5635 130.339 45.7371 131.874 47.5106C133.821 49.5714 136.422 50.964 139.273 51.165C142.41 51.2995 145.572 50.6503 147.96 48.4664L148.125 48.3073L148.405 48.0417L148.715 47.7172C149.373 47.0438 149.911 46.3908 150.336 45.5479L150.486 45.2385C151.496 43.3381 151.933 40.9146 151.399 38.8054L151.312 38.5108C150.866 36.8808 150.154 35.3982 148.976 34.1644L148.715 33.9076C147.85 33.0321 146.974 32.3326 145.867 31.7743ZM145.168 35.6781C144.87 34.1844 144.292 32.6535 143.006 31.7462C141.272 30.6944 138.867 30.6784 137.351 32.1414C135.449 34.2486 135.44 37.1872 135.452 39.8687C135.456 40.2916 135.46 40.7144 135.461 41.1373C135.461 41.4192 135.462 41.7011 135.463 41.983L135.465 42.3884C135.474 44.4726 135.601 46.7059 136.625 48.573C137.201 49.4589 137.979 50.2599 139.033 50.5076C140.634 50.7009 142.068 50.6102 143.397 49.6057C144.409 48.6151 144.935 47.3836 145.116 45.9917L145.168 45.5927C145.366 44.3004 145.437 43.0421 145.436 41.735C145.435 41.3856 145.433 41.0361 145.435 40.6867C145.44 39.5223 145.423 38.3643 145.328 37.2033L145.298 36.8621C145.263 36.466 145.224 36.0718 145.168 35.6781Z" fill="#E3E3E3"/>
<path id="Subtract_2" fill-rule="evenodd" clip-rule="evenodd" d="M120.617 31.775L120.397 31.6657C116.033 29.466 110.538 30.1814 107.042 33.6902C105.216 35.6771 103.992 38.1173 104.086 40.8564L104.109 41.2262C104.227 43.5642 105.089 45.7378 106.624 47.5113C108.571 49.5721 111.173 50.9647 114.023 51.1657C117.161 51.3003 120.323 50.6511 122.71 48.4671L122.876 48.308L123.156 48.0425L123.466 47.7179C124.123 47.0445 124.661 46.3915 125.087 45.5486L125.236 45.2392C126.247 43.3388 126.684 40.9153 126.15 38.8061L126.062 38.5115C125.617 36.8815 124.904 35.399 123.726 34.1651L123.466 33.9083C122.6 33.0329 121.724 32.3333 120.617 31.775ZM119.918 35.6785C119.621 34.1847 119.043 32.6539 117.757 31.7466C116.023 30.6948 113.617 30.6788 112.102 32.1417C110.2 34.249 110.19 37.1875 110.203 39.8691C110.207 40.292 110.21 40.7148 110.211 41.1377C110.212 41.4196 110.213 41.7015 110.214 41.9834L110.216 42.3887C110.224 44.473 110.351 46.7063 111.376 48.5734C111.951 49.4593 112.729 50.2603 113.783 50.508C115.385 50.7013 116.818 50.6106 118.148 49.6061C119.16 48.6155 119.685 47.384 119.866 45.9921L119.918 45.5931C120.116 44.3007 120.188 43.0425 120.187 41.7354C120.185 41.3859 120.184 41.0365 120.185 40.687C120.19 39.5227 120.174 38.3647 120.079 37.2037L120.048 36.8625C120.013 36.4664 119.975 36.0722 119.918 35.6785Z" fill="#E3E3E3"/>
<path id="Subtract_3" fill-rule="evenodd" clip-rule="evenodd" d="M35.1753 17.8557H26.5591V18.4459H29.6279L29.5098 34.1439L29.504 34.1308C29.1785 33.3984 28.9201 32.8171 28.4591 32.1877C27.66 31.2635 26.596 30.6397 25.3788 30.485C22.3271 30.2571 19.9482 30.9473 17.5994 32.9166C15.6067 34.7595 14.4995 37.5854 14.354 40.2502C14.2695 43.1981 15.0992 45.8613 17.1166 48.0716C19.0592 50.0359 21.2478 51.1111 24.0295 51.1669L24.2944 51.1699C25.0909 51.1808 25.7785 51.0732 26.5263 50.7771C27.8421 50.1181 28.912 49.1303 29.3918 47.6953L29.5098 47.2454H29.7459V50.5502H38.1261V49.9601H35.1753V17.8557ZM29.1341 35.2788C28.6898 33.7773 27.956 32.3024 26.5862 31.4695C25.1878 30.7909 23.5523 30.8252 22.303 31.7821C20.4765 33.6956 20.4765 33.6956 20.5083 40.4401C20.5099 40.7578 20.5107 41.0755 20.5107 41.3931C20.5106 41.708 20.511 42.0228 20.5116 42.3376L20.5127 42.7912C20.5152 45.3813 20.5444 47.8585 22.2219 49.9441C22.7758 50.382 23.3027 50.5271 24.0043 50.5785C25.442 50.6031 26.4107 50.3547 27.4904 49.3848C29.5035 47.2873 29.6387 44.2002 29.6371 41.4641C29.6363 41.2223 29.6357 40.9805 29.6363 40.7387C29.642 38.9082 29.5518 37.0678 29.1341 35.2788Z" fill="#E3E3E3"/>
<path id="Vector_3" d="M0 31.0763C2.80441 31.0763 5.60882 31.0763 8.49821 31.0763C8.49821 37.3083 8.49821 43.5403 8.49821 49.9612C9.51091 49.9612 10.5236 49.9612 11.567 49.9612C11.567 50.1559 11.567 50.3507 11.567 50.5513C7.74989 50.5513 3.93278 50.5513 0 50.5513C0 50.3566 0 50.1618 0 49.9612C1.0127 49.9612 2.02541 49.9612 3.0688 49.9612C3.0688 43.9239 3.0688 37.8867 3.0688 31.6664C2.05609 31.6664 1.04339 31.6664 0 31.6664C0 31.4717 0 31.2769 0 31.0763Z" fill="#E3E3E3"/>
<path id="Subtract_4" fill-rule="evenodd" clip-rule="evenodd" d="M56.1157 31.4393L55.8312 31.3111C53.9354 30.3148 51.4922 30.2282 49.4133 30.6103C46.7233 31.3028 44.3937 32.9395 42.8248 35.2278L42.6118 35.5602C41.1734 37.802 40.9859 40.2361 41.2378 42.8454C41.6533 44.9712 42.6703 47.1086 44.3859 48.485L44.6183 48.6616C45.4027 49.2705 46.1772 49.8139 47.0969 50.196C49.4998 51.1213 52.8672 51.8157 55.3448 50.7788L55.5951 50.6681C56.2545 50.3976 56.8856 50.1067 57.4836 49.7165C58.9178 48.6637 60.0246 47.2545 60.3164 45.4748L59.7262 45.3568C59.3689 46.265 59.0127 47.131 58.4242 47.917C57.2779 49.2612 55.6945 50.2835 53.9048 50.4589C52.3751 50.5541 50.773 50.4942 49.5479 49.4569C47.125 44.7498 47.125 44.7498 47.333 39.2192H60.6704C60.6704 38.0292 60.6076 37.0946 60.2352 35.9807C59.4646 33.9874 58.0716 32.3402 56.1157 31.4393ZM54.5277 34.0259C54.3611 32.9779 53.9798 32.0725 53.1113 31.4292C52.1066 30.8096 50.5959 30.8924 49.5704 31.4292C48.672 32.0741 48.0097 32.9929 47.7511 34.0711L47.6819 34.38C47.5778 34.7214 47.5043 34.9625 47.4524 35.2081C47.3278 35.7981 47.3278 36.4144 47.3278 38.511H54.5277L54.5351 36.3054L54.5355 36.2043C54.5369 35.9129 54.5383 35.6215 54.5389 35.33L54.5392 35.0646C54.5414 34.718 54.5434 34.3722 54.5277 34.0259Z" fill="#E3E3E3"/>
<path id="Vector_4" d="M9.66995 17.1467C10.118 17.3003 10.4888 17.513 10.8503 17.818C11.0451 18.2686 11.0644 18.6726 10.9683 19.1533C10.6352 19.8036 10.0704 20.3024 9.55192 20.8061C9.3261 21.0315 9.11746 21.2641 8.91013 21.5065C8.52372 21.9563 8.10798 22.3697 7.68602 22.7859C7.37768 23.0987 7.09299 23.4273 6.80725 23.7606C6.51589 24.0885 6.20264 24.3922 5.89021 24.6998C5.65985 24.9338 5.44356 25.1751 5.22905 25.4236C4.87408 25.8328 4.52793 26.2288 4.12251 26.5892C3.96671 26.5892 3.81091 26.5892 3.65039 26.5892C3.72511 26.0853 3.90088 25.6873 4.12626 25.2319C4.18128 25.1201 4.18128 25.1201 4.23741 25.006C4.3585 24.7605 4.48065 24.5155 4.60293 24.2705C4.68813 24.099 4.77331 23.9274 4.85847 23.7559C5.03717 23.3964 5.21644 23.0372 5.39607 22.6781C5.6249 22.2205 5.85178 21.7619 6.07815 21.3031C6.25358 20.9482 6.4303 20.5941 6.60739 20.2401C6.6915 20.0715 6.77517 19.9026 6.85834 19.7335C8.2237 16.9618 8.2237 16.9618 9.66995 17.1467Z" fill="#E3E3E3"/>
<path id="Vector_5" d="M133.377 32.7253C133.455 32.7643 133.533 32.8032 133.613 32.8434C132.912 33.5445 132.211 34.2456 131.489 34.9679C131.489 34.3183 132.115 33.8783 132.551 33.4335C132.82 33.1859 133.093 32.9552 133.377 32.7253Z" fill="#E3E3E3"/>
<path id="Vector_6" d="M108.113 32.7253C108.191 32.7643 108.269 32.8032 108.349 32.8434C107.648 33.5445 106.947 34.2456 106.225 34.9679C106.225 34.3183 106.851 33.8783 107.287 33.4335C107.555 33.1859 107.829 32.9552 108.113 32.7253Z" fill="#E3E3E3"/>
<path id="Vector_7" d="M166.07 32.1348C166.148 32.1737 166.225 32.2127 166.306 32.2528C165.76 32.7981 165.215 33.3434 164.653 33.9052C164.653 33.3265 165.09 33.0066 165.48 32.6069C165.671 32.4436 165.866 32.2829 166.07 32.1348Z" fill="#E3E3E3"/>
</g>
</g>
</svg>
