<?xml version="1.0" encoding="utf-8"?>
<!-- Generator: Adobe Illustrator 27.2.0, SVG Export Plug-In . SVG Version: 6.00 Build 0)  -->
<svg version="1.1" id="Layer_1" xmlns="http://www.w3.org/2000/svg" xmlns:xlink="http://www.w3.org/1999/xlink" x="0px" y="0px"
	 viewBox="0 0 54 55" style="enable-background:new 0 0 54 55;" xml:space="preserve">
<g id="Group_382">
	<g id="Group">
		<g id="Vector">
			<path d="M36,37.5c-0.3,0-0.5-0.1-0.7-0.3l-18-18c-0.4-0.4-0.4-1,0-1.4s1-0.4,1.4,0l18,18c0.4,0.4,0.4,1,0,1.4
				C36.5,37.4,36.3,37.5,36,37.5z"/>
		</g>
		<g id="Vector_2">
			<path d="M18,37.5c-0.3,0-0.5-0.1-0.7-0.3c-0.4-0.4-0.4-1,0-1.4l18-18c0.4-0.4,1-0.4,1.4,0s0.4,1,0,1.4l-18,18
				C18.5,37.4,18.3,37.5,18,37.5z"/>
		</g>
	</g>
</g>
</svg>
