<?xml version="1.0" encoding="utf-8"?>
<!-- Generator: Adobe Illustrator 27.2.0, SVG Export Plug-In . SVG Version: 6.00 Build 0)  -->
<svg version="1.1" id="Layer_1" xmlns="http://www.w3.org/2000/svg" xmlns:xlink="http://www.w3.org/1999/xlink" x="0px" y="0px"
	 viewBox="0 0 70 70" style="enable-background:new 0 0 70 70;" xml:space="preserve">
<style type="text/css">
	.st0{fill:#E93D3D;}
	.st1{fill:#FFFFFF;}
</style>
<g id="Group">
	<g id="Vector">
		<g>
			<path class="st0" d="M55.2,31c0,11.2-9.1,20.2-20.2,20.2c-11.2,0-20.2-9.1-20.2-20.2c0-11.2,9.1-20.2,20.2-20.2
				C46.2,10.8,55.2,19.8,55.2,31z"/>
		</g>
	</g>
	<g id="Vector_2">
		<path class="st1" d="M32.6,24.4l8.7,5.2c1.1,0.7,1.1,2.3,0,2.9l-8.7,5.2c-1.1,0.7-2.5-0.1-2.5-1.5V25.8
			C30.1,24.5,31.5,23.7,32.6,24.4z"/>
		<path class="st1" d="M31.8,38.6c-0.4,0-0.8-0.1-1.2-0.3c-0.8-0.4-1.2-1.2-1.2-2.1V25.8c0-0.9,0.5-1.7,1.2-2.1
			c0.8-0.4,1.7-0.4,2.4,0l8.7,5.2c0.7,0.4,1.2,1.2,1.2,2.1c0,0.9-0.4,1.7-1.2,2.1L33,38.3C32.6,38.5,32.2,38.6,31.8,38.6z
			 M31.8,24.9c-0.2,0-0.4,0.1-0.5,0.1c-0.3,0.2-0.5,0.5-0.5,0.8v10.3c0,0.5,0.3,0.7,0.5,0.8c0.1,0.1,0.5,0.2,0.9,0l8.7-5.2
			c0.3-0.2,0.5-0.5,0.5-0.8c0-0.3-0.2-0.6-0.5-0.8L32.2,25l0,0C32.1,24.9,31.9,24.9,31.8,24.9z"/>
	</g>
</g>
</svg>
