<?xml version="1.0" encoding="utf-8"?>
<!-- Generator: Adobe Illustrator 27.2.0, SVG Export Plug-In . SVG Version: 6.00 Build 0)  -->
<svg version="1.1" id="Layer_1" xmlns="http://www.w3.org/2000/svg" xmlns:xlink="http://www.w3.org/1999/xlink" x="0px" y="0px"
	 viewBox="0 0 64 64" style="enable-background:new 0 0 64 64;" xml:space="preserve">
<style type="text/css">
	.st0{fill:#FFFFFF;}
</style>
<g id="Group_380">
	<g id="Group">
		<g id="Vector">
			<path class="st0" d="M49.3,33H14.7c-0.6,0-1-0.4-1-1s0.4-1,1-1h34.7c0.6,0,1,0.4,1,1S49.9,33,49.3,33z"/>
		</g>
		<g id="Vector_2">
			<path class="st0" d="M49.3,43.7H14.7c-0.6,0-1-0.4-1-1s0.4-1,1-1h34.7c0.6,0,1,0.4,1,1S49.9,43.7,49.3,43.7z"/>
		</g>
		<g id="Vector_3">
			<path class="st0" d="M49.3,22.3H14.7c-0.6,0-1-0.4-1-1s0.4-1,1-1h34.7c0.6,0,1,0.4,1,1S49.9,22.3,49.3,22.3z"/>
		</g>
	</g>
</g>
</svg>
