<?xml version="1.0" encoding="utf-8"?>
<!-- Generator: Adobe Illustrator 27.2.0, SVG Export Plug-In . SVG Version: 6.00 Build 0)  -->
<svg version="1.1" id="Layer_1" xmlns="http://www.w3.org/2000/svg" xmlns:xlink="http://www.w3.org/1999/xlink" x="0px" y="0px"
	 viewBox="0 0 44 44" style="enable-background:new 0 0 44 44;" xml:space="preserve">
<style type="text/css">
	.st0{fill:#FFFFFF;}
</style>
<g id="Group_16380">
	<g id="Vector">
		<path class="st0" d="M30.3,39.5H13.7c-5.1,0-9.2-4.1-9.2-9.2V13.7c0-5.1,4.1-9.2,9.2-9.2h16.5c5.1,0,9.2,4.1,9.2,9.2v16.5
			C39.5,35.4,35.4,39.5,30.3,39.5z M13.7,6.5c-4,0-7.2,3.2-7.2,7.2v16.5c0,4,3.2,7.2,7.2,7.2h16.5c4,0,7.2-3.2,7.2-7.2V13.7
			c0-4-3.2-7.2-7.2-7.2H13.7z"/>
	</g>
	<g id="Vector_2">
		<path class="st0" d="M31.1,14.5c-0.9,0-1.6-0.7-1.6-1.6c0-0.9,0.7-1.6,1.6-1.6c0.4,0,0.8,0.2,1.2,0.5c0.3,0.3,0.5,0.7,0.5,1.1
			C32.7,13.8,32,14.5,31.1,14.5z M31.1,12.5c-0.2,0-0.4,0.2-0.4,0.4c0,0.1,0,0.2,0.1,0.3c0.1,0.1,0.2,0.1,0.3,0.1V12.5z M31.1,12.5
			l0,0.8c0.2,0,0.4-0.2,0.4-0.4C31.5,12.7,31.3,12.5,31.1,12.5C31.1,12.5,31.1,12.5,31.1,12.5z"/>
	</g>
	<g id="Vector_3">
		<path class="st0" d="M22,29.6c-1.9,0-3.9-0.7-5.4-2.2c-3-3-3-7.8,0-10.7c1.4-1.4,3.3-2.2,5.4-2.2c2,0,3.9,0.8,5.4,2.2l0,0l0,0
			c1.4,1.4,2.2,3.3,2.2,5.4c0,2-0.8,3.9-2.2,5.4C25.9,28.9,23.9,29.6,22,29.6z M22,16.4c-1.5,0-2.9,0.6-4,1.6
			c-2.2,2.2-2.2,5.7,0,7.9c2.2,2.2,5.7,2.2,7.9,0c1.1-1.1,1.6-2.5,1.6-4c0-1.5-0.6-2.9-1.6-4l0,0C24.9,17,23.5,16.4,22,16.4z"/>
	</g>
</g>
</svg>
